<?xml version="1.0" encoding="utf-8"?>
<!-- Generator: Adobe Illustrator 15.0.0, SVG Export Plug-In . SVG Version: 6.00 Build 0)  -->
<!DOCTYPE svg PUBLIC "-//W3C//DTD SVG 1.1//EN" "http://www.w3.org/Graphics/SVG/1.1/DTD/svg11.dtd">
<svg version="1.1" xmlns="http://www.w3.org/2000/svg" xmlns:xlink="http://www.w3.org/1999/xlink" x="0px" y="0px" width="138px"
	 height="34px" viewBox="0 0 138 34" enable-background="new 0 0 138 34" xml:space="preserve">
<g id="SnsBao">
	<g>
		<path fill="#FFFFFF" d="M56.25,7.625C56.082,7.793,55.875,7.918,55.625,8c-0.418,0.168-0.709,0.375-0.875,0.625
			c-0.084,0.168-0.168,0.418-0.25,0.75c-0.084,0.334-0.209,0.584-0.375,0.75H54c-0.084,0-0.209-0.082-0.375-0.25
			C52.791,8.793,51.832,8.25,50.75,8.25c-2.168,0.168-3.293,0.959-3.375,2.375c0,1.25,1.25,2.209,3.75,2.875
			c4.082,1,6.125,3.168,6.125,6.5c-0.25,4.25-2.625,6.5-7.125,6.75c-4.168-0.334-6.375-2.291-6.625-5.875
			c0.082-2.332,0.75-3.875,2-4.625c0.332,0.168,0.666,0.5,1,1c0.166,0.25,0.291,0.459,0.375,0.625c1.166,0,1.957,0.334,2.375,1
			c-0.25,0-0.5,0.168-0.75,0.5v0.375c-0.084,0.168-0.125,0.293-0.125,0.375c0,1.25,0.666,1.918,2,2
			c2.5-0.25,3.791-1.375,3.875-3.375c0-1.416-1.334-2.457-4-3.125c-3.5-0.916-5.25-2.582-5.25-5c0.25-3,2.166-4.707,5.75-5.125
			C53.582,5.75,55.416,6.459,56.25,7.625z"/>
		<path fill="#FFFFFF" d="M62.25,18.75v4.625c0,0.75,0.166,1.5,0.5,2.25c-0.418,0.584-1,0.832-1.75,0.75
			c-1.084,0.082-1.584-0.291-1.5-1.125c0-0.332,0.082-0.75,0.25-1.25c0.082-0.582,0.125-1,0.125-1.25v-6.875
			c0-0.666-0.168-1.125-0.5-1.375c-0.334-0.166-0.543-0.375-0.625-0.625L59,13.5h0.25c0.166-0.082,0.291-0.125,0.375-0.125h2.25
			l0.25,1c0.416-0.832,1.291-1.25,2.625-1.25c2.832,0.25,4.375,2.125,4.625,5.625c0,0.834-0.043,1.709-0.125,2.625
			c-1.668,4.5-3.209,6.916-4.625,7.25c-0.25,0-0.459-0.168-0.625-0.5c0.166-0.5,0.541-1.168,1.125-2
			c1.082-1.832,1.625-3.582,1.625-5.25c-0.168-2.082-1-3.166-2.5-3.25C63,17.793,62.332,18.168,62.25,18.75z"/>
		<path fill="#FFFFFF" d="M79.875,16.125h-0.25c-0.25-0.082-0.543-0.291-0.875-0.625c-0.334-0.332-0.875-0.5-1.625-0.5
			c-1.25,0.084-1.918,0.584-2,1.5c0,0.75,0.916,1.334,2.75,1.75c3,0.584,4.5,1.959,4.5,4.125c-0.168,2.5-1.959,3.834-5.375,4
			c-3.168,0-4.793-1.166-4.875-3.5c0.25-1.75,0.75-2.707,1.5-2.875c0.082,0,0.25,0.209,0.5,0.625l0.125,0.25
			c0.25,0.168,0.582,0.209,1,0.125c0.166,0,0.291,0,0.375,0c0.416,0.084,0.666,0.334,0.75,0.75L76.25,22
			c-0.084,0.25-0.125,0.459-0.125,0.625c0.082,0.5,0.541,0.793,1.375,0.875c1.582-0.082,2.416-0.666,2.5-1.75
			c0-1-1.043-1.707-3.125-2.125c-2.5-0.5-3.75-1.5-3.75-3c0.082-2.166,1.625-3.291,4.625-3.375c2.082,0.084,3.166,0.459,3.25,1.125
			c0,0.084-0.168,0.293-0.5,0.625c-0.168,0.084-0.293,0.168-0.375,0.25C80.041,15.334,80,15.459,80,15.625
			C79.916,15.875,79.875,16.043,79.875,16.125z"/>
		<path fill="#FFFFFF" d="M85.125,20.75v-9.5v-0.375L85,10.75c-0.084-0.166-0.168-0.207-0.25-0.125c-0.25,0.084-0.584,0.209-1,0.375
			c-0.168,0.084-0.293,0.168-0.375,0.25l-0.5-0.25l-0.25-0.5c0.666-2.332,3.207-3.707,7.625-4.125c4.416,0.168,6.666,1.75,6.75,4.75
			c0.082,1.584-0.709,2.793-2.375,3.625V15c3.082,1.168,4.625,3.25,4.625,6.25c-0.418,3.418-3.125,5.375-8.125,5.875
			c-5.168-0.5-7.918-1.707-8.25-3.625c0-0.416,0.332-0.791,1-1.125C84.707,22.043,85.125,21.5,85.125,20.75z M88,11.125V14h1.25
			c2.832-0.082,4.291-1,4.375-2.75c-0.168-1.5-1.25-2.332-3.25-2.5C88.875,8.75,88.082,9.543,88,11.125z M90.5,16.5H88v3.875
			c0.166,1.168,1.125,1.75,2.875,1.75c1.75-0.166,2.707-1,2.875-2.5C93.666,17.625,92.582,16.584,90.5,16.5z"/>
		<path fill="#FFFFFF" d="M111.375,16.625v6.75c0,0.418,0.166,0.875,0.5,1.375c0.166,0.334,0.25,0.584,0.25,0.75
			c0.082,0.75-0.334,1.082-1.25,1c-0.75,0-1.25-0.416-1.5-1.25c-1,0.834-2.168,1.25-3.5,1.25c-2.418-0.084-3.709-1.207-3.875-3.375
			c0-2,1.875-3.582,5.625-4.75c0.666-0.25,1.166-0.416,1.5-0.5c-0.168-0.75-0.875-1.125-2.125-1.125
			c-1.418-0.082-2.209,0.459-2.375,1.625c-1.5-0.082-2.293-0.75-2.375-2c0.082-1.832,1.582-2.832,4.5-3
			C109.832,13.293,111.375,14.375,111.375,16.625z M109.375,22.5v-3.25c-0.168,0.084-0.459,0.209-0.875,0.375
			c-1.834,0.5-2.709,1.334-2.625,2.5c0.082,0.918,0.707,1.418,1.875,1.5C108.416,23.625,108.957,23.25,109.375,22.5z"/>
		<path fill="#FFFFFF" d="M127.25,20.125c-0.334,4-2.334,6.125-6,6.375c-3.668-0.25-5.668-2.375-6-6.375
			c0.416-4.166,2.416-6.416,6-6.75C124.832,13.709,126.832,15.959,127.25,20.125z M124.875,18.625
			c-0.168-2.25-1.375-3.457-3.625-3.625c-2.168,0.168-3.334,1.375-3.5,3.625c0.166,2.25,1.332,3.459,3.5,3.625
			C123.5,22,124.707,20.793,124.875,18.625z"/>
	</g>
</g>
<g id="形状_1_1_" enable-background="new    ">
	<g id="形状_1">
		<g>
			<path fill-rule="evenodd" clip-rule="evenodd" fill="#FFFFFF" d="M37.822,3.122C25.529,2.157,17.6,7.925,17.6,7.925
				c-11.97,8.111-6.195,19.593-6.195,19.593C16.424,13.71,29.62,12.141,29.62,12.141c-14.042,9.307-13.951,18.482-13.951,18.482
				c7.113,1.495,12.034-1.963,12.034-1.963C40.243,22.225,37.822,3.122,37.822,3.122z"/>
		</g>
	</g>
</g>
</svg>
